<svg xmlns="http://www.w3.org/2000/svg" xmlns:xlink="http://www.w3.org/1999/xlink" width="35.74" height="32.075" viewBox="0 0 35.74 32.075"><defs><style>.a{fill:none;}.b{clip-path:url(#a);}.c{fill:#24c9bd;}.d{fill:#521261;}</style><clipPath id="a"><path class="a" d="M69.411,136.745c-6.589,5.942-8.375,27.94-8.375,27.94s24.422-.391,31.012-6.333,6-13.846.054-20.435A16.066,16.066,0,0,0,69.411,136.745Z" transform="translate(-61.036 -132.61)"/></clipPath></defs><g transform="translate(-61.036 -132.61)"><g transform="translate(61.036 132.61)"><g class="b"><path class="c" d="M81.519,140.934q7.584,2.265,5.917,7.851-1.217,4.078-6.064,5.949a15.236,15.236,0,0,1-10.106.3l-.866-.276-4.528,8.893c-.176.329-.324.617-.45.866,7.263-.4,21.974-1.756,26.864-6.165,6.59-5.942,6-13.846.054-20.435a16.066,16.066,0,0,0-22.691-1.172,15.288,15.288,0,0,0-3.373,5.128,10.068,10.068,0,0,1,4.453-1.581A26,26,0,0,1,81.519,140.934Z" transform="translate(-61.273 -132.61)"/><path class="d" d="M65.078,144.006A4.834,4.834,0,0,0,65,145.66h0c.381-1.14.8-2.236,1.251-3.257A3.158,3.158,0,0,0,65.078,144.006Z" transform="translate(-61.249 -133.139)"/><path class="d" d="M63.79,148.929a3.834,3.834,0,0,0-.439.889,1.727,1.727,0,0,0,.152,1.168c.145-.6.3-1.209.459-1.809C63.9,149.093,63.844,149.01,63.79,148.929Z" transform="translate(-61.159 -133.492)"/><path class="d" d="M64.734,167.336a7.482,7.482,0,0,1,.438-.994c-1.989.111-3.418.15-3.933.163a7.441,7.441,0,0,0-.387.865q-.2.667.626.913a7.036,7.036,0,0,0,3.177.068A2.649,2.649,0,0,1,64.734,167.336Z" transform="translate(-61.024 -134.434)"/><path class="d" d="M65.646,164.074l4.528-8.893.866.276a15.237,15.237,0,0,0,10.106-.3q4.847-1.872,6.064-5.949,1.669-5.586-5.917-7.851a26,26,0,0,0-10.791-.642A10.068,10.068,0,0,0,66.05,142.3c-.454,1.021-.87,2.117-1.251,3.257a16.384,16.384,0,0,1,14.656-2.722,6.61,6.61,0,0,1,3.653,2.379,3.924,3.924,0,0,1,.585,3.57,7.307,7.307,0,0,1-4.623,4.911,12.311,12.311,0,0,1-8.131.026l2.764-5.257q1.266-2.354,1.346-2.623.342-1.142-.642-1.436a10.625,10.625,0,0,0-3.173-.083,1.624,1.624,0,0,1,.078,1.128,11.717,11.717,0,0,1-.845,1.839l-2.739,5.161a15.142,15.142,0,0,1-3.875-3.726c-.161.6-.314,1.2-.459,1.809a8.448,8.448,0,0,0,3.575,3.386l-5.182,10.167c-.211.4-.384.743-.523,1.023.516-.012,1.944-.052,3.933-.163C65.322,164.69,65.47,164.4,65.646,164.074Z" transform="translate(-61.048 -133.032)"/></g></g></g></svg>